<?xml version="1.0" standalone="no"?><svg xmlns="http://www.w3.org/2000/svg" viewBox="0 0 1440 320"><path fill="#03813A" fill-opacity="0.2" d="M0,192L40,208C80,224,160,256,240,266.7C320,277,400,267,480,240C560,213,640,171,720,160C800,149,880,171,960,181.3C1040,192,1120,192,1200,176C1280,160,1360,128,1400,112L1440,96L1440,320L1400,320C1360,320,1280,320,1200,320C1120,320,1040,320,960,320C880,320,800,320,720,320C640,320,560,320,480,320C400,320,320,320,240,320C160,320,80,320,40,320L0,320Z"></path></svg>